<svg viewBox="0 0 24 24" width="24" height="24" xmlns="http://www.w3.org/2000/svg"><path d="M24 22.515 1.463-.035 0 1.418l3.292 3.28-1.898 3.269a.564.564 0 0 0 .137.73l2.412 1.864c-.046.389-.08.766-.08 1.143s.034.743.08 1.109l-2.41 1.897a.564.564 0 0 0-.139.73l2.286 3.956c.137.25.446.342.697.25l2.846-1.153c.594.457 1.211.846 1.931 1.13l.423 3.03a.58.58 0 0 0 .572.48h4.571a.577.577 0 0 0 .571-.48l.423-3.03a7.708 7.708 0 0 0 1.59-.902l5.244 5.246L24 22.514m-11.566-6.811c-2.205 0-4-1.794-4-4 0-.571.137-1.051.332-1.52l5.188 5.189a3.665 3.665 0 0 1-1.52.33M9.9 9.51l5.195 5.195c.034-.092-5.092-5.23-5.195-5.195Z"/><path d="m22.466 23.873-4.036-4.037L3.711 5.116.093 1.5 1.545.059l22.362 22.374-1.44 1.44M12.442 2.803 19.2 6.602l-5.273 2.96 8.188 8.187a1.08 1.08 0 0 0 .533-.941V6.602a1.124 1.124 0 0 0-.6-.997L13.088.57a1.074 1.074 0 0 0-.647-.204c-.238 0-.465.068-.646.204L7.408 3.042 9.04 4.697l3.402-1.894Z"/></svg>